inDegrees=no
num_controls=7
num_derivatives=13
num_iterations=128
num_multipliers=7
num_parameters=0
num_slacks=7
num_states=26
objective=0.446091
objective_accelerations=0.057229
objective_balance=0.003423
objective_effort=0.022573
objective_height=0.357341
objective_ligament=0.005525
solver_duration=1719.248104
status=Solve_Succeeded
success=true
DataType=double
version=3
OpenSimVersion=4.5
endheader
time	/jointset/ground_pelvis/pelvis_tilt/value	/jointset/ground_pelvis/pelvis_tx/value	/jointset/ground_pelvis/pelvis_ty/value	/jointset/hip_l/hip_flexion_l/value	/jointset/hip_l/hip_adduction_l/value	/jointset/hip_l/hip_rotation_l/value	/jointset/back/lumbar_extension/value	/jointset/patellofemoral_l/patellar_flexion_l/value	/jointset/knee_l/knee_flexion_l/value	/jointset/knee_l/knee_adduction_l/value	/jointset/knee_l/knee_rotation_l/value	/jointset/ankle_l/ankle_angle_l/value	/jointset/subtalar_l/subtalar_angle_l/value	/jointset/ground_pelvis/pelvis_tilt/speed	/jointset/ground_pelvis/pelvis_tx/speed	/jointset/ground_pelvis/pelvis_ty/speed	/jointset/hip_l/hip_flexion_l/speed	/jointset/hip_l/hip_adduction_l/speed	/jointset/hip_l/hip_rotation_l/speed	/jointset/back/lumbar_extension/speed	/jointset/patellofemoral_l/patellar_flexion_l/speed	/jointset/knee_l/knee_flexion_l/speed	/jointset/knee_l/knee_adduction_l/speed	/jointset/knee_l/knee_rotation_l/speed	/jointset/ankle_l/ankle_angle_l/speed	/jointset/subtalar_l/subtalar_angle_l/speed	/forceset/tau_hip_flexion_l	/forceset/tau_hip_adduction_l	/forceset/tau_hip_rotation_l	/forceset/tau_knee_flexion_l	/forceset/tau_ankle_angle_l	/forceset/tau_subtalar_angle_l	/forceset/tau_lumbar_extension	lambda_cid13_p0	lambda_cid13_p1	lambda_cid13_p2	lambda_cid13_p3	lambda_cid13_p4	lambda_cid13_p5	lambda_cid14_p0	/jointset/ground_pelvis/pelvis_tilt/accel	/jointset/ground_pelvis/pelvis_tx/accel	/jointset/ground_pelvis/pelvis_ty/accel	/jointset/hip_l/hip_flexion_l/accel	/jointset/hip_l/hip_adduction_l/accel	/jointset/hip_l/hip_rotation_l/accel	/jointset/back/lumbar_extension/accel	/jointset/patellofemoral_l/patellar_flexion_l/accel	/jointset/knee_l/knee_flexion_l/accel	/jointset/knee_l/knee_adduction_l/accel	/jointset/knee_l/knee_rotation_l/accel	/jointset/ankle_l/ankle_angle_l/accel	/jointset/subtalar_l/subtalar_angle_l/accel	gamma_cid13_p0	gamma_cid13_p1	gamma_cid13_p2	gamma_cid13_p3	gamma_cid13_p4	gamma_cid13_p5	gamma_cid14_p0
1.5	-0.3592300250593258	-0.01907122949166185	0.7639759000684435	1.088984716772273	-0.4348845797551721	-0.2135242209669669	-0.2243220679486872	0.8028700427448578	0.8028700427448693	-0.1306237288753541	-0.1454970122090279	0.1349225297108249	-0.0153796741745141	0.6540823202275314	0.2669390377579806	0.5254371182537604	-2.416537481570915	0.2112961050983974	-0.7174783615659793	0.3180228650731198	-2.011751719618895	-2.011751719618987	-0.1279533137875782	0.1326413139366134	-0.4142096823128637	0.02973668410992269	-0.1711883951264299	0.03162213830668593	-0.008350621614427763	-0.2032306633212541	0.03749056191061216	0.04114296803140815	0.1660383952296871	-20.10933635715028	-17.32492633889499	5.827210266944976	-6.593813448276428	-520.2243263894677	-60.29497465244512	-25.03785423629313	0.6471719472287106	0.6729749437471337	-0.5193016238620124	-1.238152838899907	0.7096382045345503	-0.2238119402649036	1.449400774093738	-1.298908649749715	-1.298908649749717	0.156924722561388	0.1887730132898867	-0.512284246281267	0.5092706464800503	4.754114481519101e-07	5.145283575792711e-07	-2.675652280846323e-06	-8.456430047557213e-08	6.752631930465408e-07	2.681055116287149e-08	4.356414239160988e-07
1.51	-0.3526568981570966	-0.01636844980022037	0.7692032594030763	1.064759168828245	-0.4327376041719275	-0.2207089456440915	-0.2210706374749233	0.782689996880755	0.7826899968807354	-0.1318983801947014	-0.1441625130895064	0.1307551037549266	-0.01505854750691093	0.6604514617406293	0.2735821923760134	0.5199234250768811	-2.428239352087243	0.218072203268602	-0.7193242452215132	0.3322244129840959	-2.023974125129887	-2.023974125129982	-0.127010797589686	0.1342696449880496	-0.4192012641692832	0.03448862802363175	-0.1653596769231984	0.03093228789878983	-0.008010824270757361	-0.2002686519661399	0.03756809266129663	0.04034025111988727	0.1612860870989284	-19.87842918145392	-17.02093405288531	5.78353958787087	-6.450504438377378	-516.332825790043	-60.35428107638576	-25.95011151747062	0.6180610611116365	0.6548148374746274	-0.5839968520472635	-1.086267815266034	0.6575864593563695	-0.1432940273660704	1.399709295264029	-1.141481421228737	-1.141481421229173	0.05800800469139304	0.1512324087588598	-0.4814160322912456	0.4581051643182538	4.080530646720961e-07	1.02871055010176e-06	-1.808994863613427e-06	8.786944188590794e-08	5.75600887328399e-07	1.420342801879139e-07	3.927478121221627e-07
1.52	-0.3460228246781841	-0.01360027273926991	0.774372163068451	1.0404265894476	-0.4305236694397622	-0.2279077926476052	-0.2176783560229167	0.7623962119776514	0.7623962119776007	-0.1331645877648119	-0.142811456807933	0.1265399978050704	-0.01468991162007029	0.6662716355641805	0.2800185116597774	0.5137459844021465	-2.437943768894243	0.2246879348825254	-0.7203028268437883	0.3461930607216517	-2.03449952741907	-2.034499527419168	-0.1262645639402635	0.1359527463470209	-0.4237456811044624	0.03923852795741761	-0.1595309587199672	0.03024243749089358	-0.007671026927085337	-0.1973066406110267	0.03764562341198104	0.03953753420836618	0.156533778968169	-19.6507013406772	-16.71947301104709	5.743800731570495	-6.335945772034277	-512.505520603322	-60.45942051031484	-26.86198828217968	0.5373784093193205	0.6316078768933835	-0.6520511234330747	-0.8386620970344066	0.6775648932783411	-0.05035153361352379	1.402820739409709	-0.9595080053877394	-0.9595080053877381	0.117668212867452	0.1997270747969145	-0.4228512620333608	0.5088618504954103	3.878024991294358e-07	1.298114634481064e-06	-1.450842408360029e-06	1.679591300831045e-07	5.534358786518456e-07	2.284492563430372e-07	3.801292931141624e-07
1.53	-0.3393332968791138	-0.01076890357803494	0.7794760497750501	1.016006888700423	-0.4282445441657743	-0.235111989247139	-0.2141478325924716	0.7420055351973686	0.7420055351973678	-0.1344246833433758	-0.1414431763158948	0.1222815205544959	-0.01427406058682952	0.6715327401493116	0.2862061381847555	0.5069254507573392	-2.445642834576688	0.2311050465222805	-0.7204114803108199	0.3598543838168864	-2.043344845086218	-2.043344845086268	-0.1257726190940972	0.1377063687191913	-0.4278816689735055	0.04392312042446796	-0.1537322964203142	0.02932621132169086	-0.007317911443948054	-0.1942080441240424	0.03723505163708173	0.03876679926671775	0.1517421482227086	-19.58919152195296	-16.40450070022873	5.703851247962774	-5.976908345771167	-508.7716517675676	-60.63037591652614	-27.77352680249148	0.5053201530134392	0.6049907365399236	-0.7128112436344158	-0.6824658406238353	0.619026698391383	0.02800782709902604	1.339201862010828	-0.8034781433992243	-0.8034781433917344	0.01239551599263016	0.1632609537480871	-0.3987181556531033	0.4469663935661243	4.176039901450007e-07	1.307441978958237e-06	-1.63297647520984e-06	1.499332607307507e-07	6.13611748081979e-07	2.842549325738719e-07	3.996780601912186e-07
1.54	-0.3325941893002115	-0.007877128012302203	0.7845085797934753	0.9915208098890663	-0.4259021992955754	-0.2423134463652737	-0.2104824131775882	0.7215351183412101	0.7215351183412597	-0.1356803718943778	-0.1400573433730707	0.1179837343039682	-0.013811621939167	0.6761875915305797	0.2920997925593297	0.4994746467673372	-2.451219381730103	0.2373318541247271	-0.7197549305639716	0.3731722576093408	-2.050447542594199	-2.050447542594197	-0.1253831584278745	0.1394632365042008	-0.4316074810950901	0.04855605084176943	-0.1479336341206612	0.02840998515248814	-0.006964795960810982	-0.191109447637058	0.0368244798621824	0.0379960643250693	0.1469505174772481	-19.52940188644668	-16.09318395972103	5.669005470594016	-5.656914107364957	-505.0807331295169	-60.85040880911097	-28.68544756598968	0.4161277685467142	0.5728134468125782	-0.7781051924720287	-0.4141583912283643	0.6395040858166521	0.102689109162459	1.33413087885367	-0.6109839735542753	-0.6109839735542764	0.09717137687873056	0.200376157364709	-0.3408161125425065	0.4985294405456376	4.268041732381226e-07	1.405644826044804e-06	-1.636239923450798e-06	1.655565347322157e-07	6.41106328259333e-07	3.396912612051003e-07	4.083433454166989e-07
1.55	-0.3258115934990591	-0.004927866267387731	0.7894635562762428	0.9669894493501251	-0.4234985573811231	-0.2495056988701943	-0.2066857119726676	0.701002509484123	0.701002509484132	-0.1369319336111755	-0.1386547357019925	0.1136509214396356	-0.01330299871004609	0.6802191450790939	0.2977041429541994	0.4914243731705343	-2.454694921714875	0.2433628446489994	-0.7186038840917808	0.3861007957182872	-2.055770143121916	-2.055770143121888	-0.1249180222619677	0.1410389477791707	-0.4348686597452636	0.05316989909581031	-0.1418617682095101	0.0272039636906422	-0.006675019477366517	-0.1887779603943605	0.0374387382036711	0.0369244663357812	0.141960298978984	-19.16543112366831	-15.69723121158517	5.612405633163238	-5.529430047649517	-501.6428507716849	-60.88731651256319	-29.59906021884616	0.3798090761734335	0.5470338489737326	-0.832804875235166	-0.2605693432719606	0.5797895891564868	0.1354332120560435	1.262137128442878	-0.4473657004954233	-0.4473657004914666	0.02308783664204814	0.1329624474422866	-0.3057459848089994	0.4428876725148278	4.122680667684313e-07	1.606247708746535e-06	-1.433413311120696e-06	2.199494739022088e-07	6.309463795150083e-07	3.947020371672173e-07	4.044689667697121e-07
1.56	-0.3189920541767878	-0.001924003415894653	0.7943351667366521	0.9424340699031021	-0.4210356269507433	-0.2566836167512312	-0.2027617410163521	0.6804257811001359	0.6804257811001044	-0.1381784633462751	-0.1372370121511889	0.1092881013400903	-0.01274822196744847	0.6835762957543942	0.3030200138750512	0.4828014422957013	-2.456023163346459	0.2491895573102306	-0.7168880057872471	0.3986262078883429	-2.059271447974234	-2.059271447974179	-0.1243767620882452	0.1424864124493068	-0.4376089281376059	0.0577867535371118	-0.1357899022983589	0.02599794222879631	-0.00638524299392205	-0.1864464731516638	0.03805299654515978	0.03585286834649314	0.1369700804807212	-18.80371475901321	-15.30467320370291	5.560676438194736	-5.434283999375409	-498.2503000547144	-60.97282704819768	-30.50879979733469	0.2812471939039468	0.5151175520089362	-0.8926366480780605	0.0153012794095163	0.5986485132084263	0.2156554756306976	1.253505691075511	-0.2467248384744274	-0.2467248384744266	0.1123961784418654	0.1747268363979548	-0.2366340609762458	0.4991306779977578	3.842472610973137e-07	1.758361504807586e-06	-1.217915400948406e-06	2.72122131814492e-07	5.942912067648148e-07	4.314303600703057e-07	3.924548088877031e-07
1.57	-0.3121424179202194	0.001131422596205926	0.7991177234588762	0.9178765185394995	-0.4185153992763022	-0.2638421007435076	-0.1987146220788109	0.6598234478534406	0.6598234478534367	-0.1394186448511615	-0.1358058257606029	0.1049005144274005	-0.0121471572699921	0.6862368668162236	0.3080005751246703	0.4736215857397382	-2.455113498896812	0.2548134933395686	-0.7147103012819978	0.4107069080250569	-2.060882521379635	-2.060882521379586	-0.1236589277617724	0.1437307381875995	-0.4398315885811885	0.06241270677620622	-0.1298842688931738	0.02468815727138925	-0.006086729013744968	-0.1837767207983618	0.03796385171612295	0.03480827143732226	0.132048865263842	-18.68109397573121	-14.88463957485345	5.507606315806425	-5.043621870041383	-495.0129847543631	-61.09392579182269	-31.40005220530719	0.2413365895263113	0.4799033904413151	-0.9438107519634373	0.1848333466576199	0.5377534522034126	0.2339220738647091	1.171751435744105	-0.0714680918931974	-0.07146809189380821	0.05184671688653527	0.09604551958240927	-0.2034883752707299	0.4421018728725172	3.393705814244135e-07	1.849863942567786e-06	-9.865783684733818e-07	3.215194381546378e-07	5.245170040072855e-07	4.453056166496088e-07	3.702659269619166e-07
1.58	-0.305269601047592	0.004234729816603277	0.8038058514970182	0.8933392706841763	-0.4159402347806864	-0.2709757888635529	-0.1945494162877477	0.639214369972627	0.6392143699726508	-0.1406515740813561	-0.1343628440972265	0.1004930196424306	-0.01150027819494334	0.6882124189662076	0.3125962555344057	0.4639157054793002	-2.45196246169055	0.2601769215451836	-0.7119288313410426	0.4222435785927612	-2.060620374797841	-2.060620374797795	-0.122926307149838	0.1448454670073916	-0.4415905025936262	0.06694962905558996	-0.123978635487989	0.02337837231398217	-0.005788215033568174	-0.1811069684450598	0.03787470688708613	0.03376367452815135	0.1271276500469627	-18.56689652054256	-14.46661028196697	5.458830610188365	-4.6599761684345	-491.9059839137677	-61.26842254690456	-32.26745955921847	0.1442434115348233	0.4381413840321625	-0.9978413889730691	0.4635758307325086	0.5465469484638403	0.3364085627718185	1.144699777273543	0.127919158965047	0.1279191589650467	0.1153534355341599	0.1488074526978461	-0.1438847747469305	0.4813244860556208	2.995922658033986e-07	1.953672355235175e-06	-7.737923339084063e-07	3.663432280369899e-07	4.674024816344256e-07	4.572948993890433e-07	3.514824339944936e-07
